<svg width="64" height="64" viewBox="0 0 64 64" fill="none" xmlns="http://www.w3.org/2000/svg">
  <rect width="64" height="64" rx="8" fill="url(#gradient4)" />
  <path d="M0 40 L16 32 L32 36 L48 28 L64 32 L64 64 L0 64 Z" fill="#10B981" opacity="0.8" />
  <path d="M0 48 L12 44 L24 46 L36 42 L48 44 L64 40 L64 64 L0 64 Z" fill="#059669" opacity="0.6" />
  <rect x="12" y="36" width="6" height="8" fill="#8B4513" />
  <path d="M12 36 L15 32 L18 36 Z" fill="#DC2626" />
  <rect x="40" y="38" width="8" height="6" fill="#8B4513" />
  <path d="M40 38 L44 34 L48 38 Z" fill="#DC2626" />
  <circle cx="20" cy="20" r="8" fill="#FBBF24" opacity="0.7" />
  <defs>
    <linearGradient id="gradient4" x1="0%" y1="0%" x2="100%" y2="100%">
      <stop offset="0%" style="stop-color:#0F766E" />
      <stop offset="100%" style="stop-color:#134E4A" />
    </linearGradient>
  </defs>
</svg> 