<svg width="64" height="64" viewBox="0 0 64 64" fill="none" xmlns="http://www.w3.org/2000/svg">
  <rect width="64" height="64" rx="8" fill="url(#gradient2)" />
  <path d="M32 12 L40 20 L48 16 L44 28 L52 32 L44 36 L48 48 L40 44 L32 52 L24 44 L16 48 L20 36 L12 32 L20 28 L16 16 L24 20 Z" fill="#DC2626" opacity="0.9" />
  <circle cx="28" cy="26" r="2" fill="#FBBF24" />
  <circle cx="36" cy="26" r="2" fill="#FBBF24" />
  <path d="M26 34 Q32 38 38 34" stroke="#FBBF24" stroke-width="2" fill="none" />
  <path d="M20 22 L16 18 M44 22 L48 18" stroke="#DC2626" stroke-width="3" opacity="0.7" />
  <defs>
    <linearGradient id="gradient2" x1="0%" y1="0%" x2="100%" y2="100%">
      <stop offset="0%" style="stop-color:#7F1D1D" />
      <stop offset="100%" style="stop-color:#991B1B" />
    </linearGradient>
  </defs>
</svg> 