<svg width="24" height="24" viewBox="0 0 24 24" fill="none" xmlns="http://www.w3.org/2000/svg">
  <circle cx="12" cy="12" r="12" fill="#2081E2"/>
  <path d="M12 4C7.02944 4 3 8.02944 3 13C3 17.9706 7.02944 22 12 22C16.9706 22 21 17.9706 21 13C21 8.02944 16.9706 4 12 4ZM12 20.5C8.08172 20.5 4.75 17.1683 4.75 13.25C4.75 9.33172 8.08172 6 12 6C15.9183 6 19.25 9.33172 19.25 13.25C19.25 17.1683 15.9183 20.5 12 20.5ZM12 7.5C9.51472 7.5 7.5 9.51472 7.5 12C7.5 14.4853 9.51472 16.5 12 16.5C14.4853 16.5 16.5 14.4853 16.5 12C16.5 9.51472 14.4853 7.5 12 7.5Z" fill="white"/>
</svg> 